G04 MADE WITH FRITZING*
G04 WWW.FRITZING.ORG*
G04 DOUBLE SIDED*
G04 HOLES PLATED*
G04 CONTOUR ON CENTER OF CONTOUR VECTOR*
%ASAXBY*%
%FSLAX23Y23*%
%MOIN*%
%OFA0B0*%
%SFA1.0B1.0*%
%ADD10C,0.085433*%
%ADD11C,0.085000*%
%ADD12C,0.082917*%
%ADD13C,0.088000*%
%ADD14C,0.090000*%
%ADD15R,0.085000X0.085000*%
%ADD16R,0.088000X0.088000*%
%ADD17R,0.089986X0.090000*%
%LNMASK1*%
G90*
G70*
G54D10*
X1702Y1544D03*
X2291Y2013D03*
G54D11*
X302Y1444D03*
X602Y1444D03*
X302Y1344D03*
X602Y1344D03*
X302Y1244D03*
X602Y1244D03*
X302Y2444D03*
X602Y2444D03*
X302Y2344D03*
X602Y2344D03*
X302Y2244D03*
X602Y2244D03*
X2002Y544D03*
X2302Y544D03*
X2002Y444D03*
X2302Y444D03*
X2002Y344D03*
X2302Y344D03*
X1202Y544D03*
X1502Y544D03*
X1202Y444D03*
X1502Y444D03*
X1202Y344D03*
X1502Y344D03*
G54D12*
X3802Y1044D03*
X2202Y1044D03*
X3902Y1044D03*
X4002Y1044D03*
X4102Y1044D03*
X4202Y1044D03*
X4502Y2444D03*
X4302Y1044D03*
X4402Y1044D03*
X2242Y2944D03*
X2802Y1044D03*
X2902Y1044D03*
X3002Y1044D03*
X3102Y1044D03*
X4502Y1644D03*
X3202Y1044D03*
X3302Y1044D03*
X3402Y1044D03*
X3502Y1044D03*
X3002Y2944D03*
X4502Y2844D03*
X4502Y2044D03*
X4502Y1244D03*
X1842Y2944D03*
X2602Y1044D03*
X2602Y2944D03*
X4502Y2644D03*
X4502Y2244D03*
X4502Y1844D03*
X4202Y2944D03*
X4502Y1444D03*
X4102Y2944D03*
X4002Y2944D03*
X3902Y2944D03*
X3802Y2944D03*
X3702Y2944D03*
X3602Y2944D03*
X3502Y2944D03*
X1642Y2944D03*
X2042Y2944D03*
X2442Y2944D03*
X2002Y1044D03*
X2402Y1044D03*
X3202Y2944D03*
X2802Y2944D03*
X4502Y2944D03*
X4502Y2744D03*
X4502Y2544D03*
X4502Y2344D03*
X4502Y2144D03*
X4502Y1944D03*
X4502Y1744D03*
X4502Y1544D03*
X4502Y1344D03*
X1542Y2944D03*
X1742Y2944D03*
X1942Y2944D03*
X2142Y2944D03*
X2342Y2944D03*
X1902Y1044D03*
X2102Y1044D03*
X2302Y1044D03*
X2502Y1044D03*
X3302Y2944D03*
X3102Y2944D03*
X2902Y2944D03*
X2702Y2944D03*
X4602Y2944D03*
X4602Y2844D03*
X4602Y2744D03*
X4602Y2644D03*
X4602Y2544D03*
X4602Y2444D03*
X4602Y2344D03*
X4602Y2244D03*
X4602Y2144D03*
X4602Y2044D03*
X4602Y1944D03*
X4602Y1844D03*
X4602Y1744D03*
X4602Y1644D03*
X4602Y1544D03*
X4602Y1444D03*
X4602Y1344D03*
X4602Y1244D03*
X3702Y1044D03*
G54D13*
X3402Y444D03*
X3402Y344D03*
X2802Y444D03*
X2802Y344D03*
X4402Y3544D03*
X4402Y3444D03*
X4002Y3544D03*
X4002Y3444D03*
X4502Y444D03*
X4502Y344D03*
X5402Y444D03*
X5402Y344D03*
X5102Y444D03*
X5102Y344D03*
X5502Y3544D03*
X5502Y3444D03*
X5502Y2244D03*
X5502Y2144D03*
X5502Y2044D03*
X5502Y1944D03*
X502Y1944D03*
X502Y1844D03*
X502Y1744D03*
G54D10*
X4775Y2703D03*
X4775Y2463D03*
X4302Y2544D03*
X4402Y744D03*
X5002Y2344D03*
X4802Y2244D03*
X4983Y1261D03*
X3302Y1744D03*
X4784Y1965D03*
X2802Y3444D03*
X5202Y2244D03*
X5202Y2644D03*
X4784Y2861D03*
X5002Y3044D03*
G54D14*
X502Y3944D03*
X502Y3744D03*
X502Y3544D03*
X502Y3344D03*
X502Y4144D03*
G54D13*
X2302Y3744D03*
X2302Y3644D03*
X2302Y3544D03*
X2302Y3444D03*
X2302Y3344D03*
X1502Y3744D03*
X1502Y3644D03*
X1502Y3544D03*
X1502Y3444D03*
X1502Y3344D03*
G54D15*
X302Y1444D03*
X302Y2444D03*
X2002Y544D03*
X1202Y544D03*
G54D16*
X3402Y444D03*
X2802Y444D03*
X4402Y3544D03*
X4002Y3544D03*
X4502Y444D03*
X5402Y444D03*
X5102Y444D03*
X5502Y3544D03*
X5502Y2244D03*
X502Y1944D03*
G54D17*
X502Y4144D03*
G54D16*
X2302Y3744D03*
X1502Y3744D03*
G04 End of Mask1*
M02*