; NON-PLATED HOLES START AT T1
; THROUGH (PLATED) HOLES START AT T100
M48
INCH
T100C0.035000
T101C0.038000
T102C0.040000
T103C0.038194
T104C0.035433
%
T100
X012020Y004441
X012020Y005441
X006020Y011441
X015020Y004441
X003020Y025441
X003020Y012441
X020020Y005441
X003020Y013441
X015020Y005441
X020020Y004441
X003020Y011441
X020020Y003441
X023020Y004441
X003020Y023441
X006020Y025441
X023020Y003441
X023020Y005441
X006020Y012441
X006020Y024441
X006020Y023441
X012020Y003441
X003020Y024441
X006020Y013441
X015020Y003441
T101
X023020Y034441
X015020Y034441
X015020Y033441
X015020Y035441
X023020Y033441
X023020Y036441
X023020Y035441
X023020Y037441
X015020Y037441
X015020Y036441
T102
X053020Y019441
X041020Y004441
X039020Y033441
X053020Y002441
X047020Y002441
X002020Y017441
X053020Y004441
X054020Y034441
X027020Y003441
X041020Y002441
X053020Y017441
X005020Y037441
X034020Y003441
X005020Y033441
X047020Y004441
X005020Y041441
X005020Y039441
X002020Y019441
X053020Y015441
X039020Y035441
X032020Y003441
X045020Y037441
X045020Y039441
X029020Y003441
X053020Y013441
X005020Y035441
X054020Y032441
X002020Y015441
T103
X046019Y023441
X015419Y029441
X046019Y018441
X022419Y029441
X039019Y010441
X021419Y029441
X034019Y010441
X046019Y015441
X045020Y024441
X045020Y025441
X044019Y010441
X042020Y029441
X035020Y029441
X024019Y010441
X045020Y019441
X023020Y010441
X045020Y029441
X030020Y029441
X037020Y010441
X026019Y010441
X041019Y010441
X046019Y022441
X017419Y029441
X033020Y010441
X033020Y029441
X035020Y010441
X032020Y010441
X031019Y029441
X021019Y010441
X046019Y028441
X030020Y010441
X036019Y029441
X041019Y029441
X045020Y022441
X040020Y010441
X046019Y021441
X046019Y027441
X045020Y016441
X023420Y029441
X027020Y029441
X045020Y026441
X046019Y017441
X045020Y015441
X046019Y025441
X038020Y029441
X031019Y010441
X038020Y010441
X046019Y012441
X045020Y012441
X046019Y026441
X045020Y014441
X046019Y024441
X016419Y029441
X029019Y010441
X020019Y010441
X040020Y029441
X029019Y029441
X022020Y010441
X045020Y028441
X045020Y020441
X046019Y019441
X045020Y027441
X045020Y017441
X046019Y029441
X018420Y029441
X019419Y029441
X025019Y010441
X026019Y029441
X037020Y029441
X042020Y010441
X045020Y018441
X032020Y029441
X046019Y016441
X045020Y013441
X045020Y021441
X028020Y029441
X020419Y029441
X046019Y013441
X039019Y029441
X046019Y020441
X043020Y010441
X019019Y010441
X046019Y014441
X045020Y023441
X024419Y029441
X028020Y010441
T104
X044020Y007441
X043020Y025441
X028020Y034441
X050020Y023441
X047839Y028613
X050020Y030441
X049833Y012607
X022912Y020128
X047844Y019645
X052020Y022441
X033020Y017441
X047754Y027029
X047754Y024629
X048020Y022441
X017020Y015441
X052020Y026441
T00
M30
